<svg xmlns="http://www.w3.org/2000/svg" viewBox="180 130 660 760" fill="none" aria-hidden="true">
  <path fill="#BBDB48" d="M292.278564,239.281433 C334.508362,195.820343 384.386444,166.183838 442.994080,151.610413 C475.114685,143.623276 507.757172,140.905930 540.633484,144.276474 C620.465454,152.461029 687.408752,186.618942 740.975037,246.334152 C785.166382,295.598328 811.731018,353.383545 822.192261,418.677887 C826.135803,443.291534 827.545837,482.940460 824.714783,502.012970 C616.363220,483.543274 407.966034,465.069550 198.920593,446.538330 C206.727234,366.780487 237.327240,297.768524 292.278564,239.281433z"/>
  <path fill="#BBDB48" d="M466.923462,743.892578 C436.791443,746.511719 407.127350,749.145996 377.455353,751.688721 C352.079834,753.863098 326.693512,755.911072 301.315521,758.056763 C286.553925,759.304749 271.800720,760.651245 257.039795,761.907349 C255.236496,762.060852 253.408829,761.928345 251.042679,761.928345 C250.754745,760.096619 250.268433,758.211426 250.188080,756.309021 C249.101105,730.575378 250.559174,705.084412 256.700745,679.931091 C267.900391,634.062073 289.152344,593.708252 322.679779,560.294128 C358.379639,524.714966 401.272247,502.688995 451.331726,496.111084 C529.079956,485.894806 594.908691,510.984772 649.058411,566.647400 C689.409363,608.125671 711.836182,658.606750 719.143982,715.897522 C719.373169,717.694336 719.639343,719.486511 720.000977,722.093567 C714.233643,722.689636 708.711914,723.352478 703.173523,723.817871 C665.857666,726.953308 628.535828,730.017273 591.220825,733.162781 C556.233337,736.112061 521.251404,739.126953 486.268341,742.128906 C479.971497,742.669189 473.681244,743.286377 466.923462,743.892578z"/>
  <path fill="#BBDB48" d="M420.307526,786.285278 C475.586121,739.705139 556.913879,754.108826 594.359131,816.737488 C605.625061,835.580139 611.403259,855.986694 612.751709,877.771301 C612.813354,878.767334 612.804199,879.770203 612.775330,880.768372 C612.761230,881.254944 612.625671,881.737976 612.478210,882.625366 C534.303955,882.625366 456.107483,882.625366 377.046143,882.625366 C377.958832,844.544189 391.512787,812.253540 420.307526,786.285278z"/>
</svg>
